# xmcd
#
# Track frame offsets:
#	150
#	15102
#	30515
#	56480
#	70101
#	80495
#	100069
#	116091
#	129752
#	148906
#	163856
#	173017
#	190478
#	207245
#	222469
#
# Disc length: 3629 seconds
#
# Revision: 0
# Processed by: cddbd v1.5.1PL0 Copyright (c) Steve Scherf et al.
# Submitted via: dBpowerAMP V4.0
#
DISCID=cd0e2b0f
DTITLE=Les messagers - 30 ans - CD2
DYEAR=1998
DGENRE=Native American
TTITLE0=It's me oh Lord
TTITLE1=Wade in the water
TTITLE2=In the upper room
TTITLE3=Wish appeal
TTITLE4=Jericho
TTITLE5=Deep river
TTITLE6=My Lord is writting
TTITLE7=Peace in the valley
TTITLE8=Amen
TTITLE9=Nobody knows
TTITLE10=Daniel
TTITLE11=When the saints
TTITLE12=Swing down chariot
TTITLE13=Skip to my lou
TTITLE14=Oh happy Day
EXTD=
EXTT0=
EXTT1=
EXTT2=
EXTT3=
EXTT4=
EXTT5=
EXTT6=
EXTT7=
EXTT8=
EXTT9=
EXTT10=
EXTT11=
EXTT12=
EXTT13=
EXTT14=
PLAYORDER=
